<svg width="100" height="100" viewBox="0 0 100 100" fill="none" xmlns="http://www.w3.org/2000/svg">
<circle cx="50" cy="50" r="50" fill="#010A08"/>
<g clip-path="url(#clip0_4614_490)">
<path fill-rule="evenodd" clip-rule="evenodd" d="M50.0002 17.2C68.1156 17.2 82.8002 32.2549 82.8002 50.8296C82.8002 65.6847 73.4128 78.2865 60.388 82.7375C58.725 83.0688 58.1346 82.0186 58.1346 81.1231C58.1346 80.0145 58.1739 76.3935 58.1739 71.8933C58.1739 68.7576 57.1244 66.7111 55.9468 65.668C63.2514 64.8349 70.9266 61.9909 70.9266 49.0742C70.9266 45.4006 69.6539 42.4029 67.5482 40.0478C67.8893 39.1983 69.0144 35.7777 67.2267 31.1464C67.2267 31.1464 64.4781 30.2452 58.2166 34.5945C55.5959 33.85 52.7882 33.4753 50.0002 33.4622C47.2122 33.4753 44.4078 33.85 41.7904 34.5945C35.5223 30.2452 32.7671 31.1464 32.7671 31.1464C30.986 35.7777 32.1111 39.1983 32.4489 40.0478C30.353 42.4029 29.0705 45.4006 29.0705 49.0742C29.0705 61.9581 36.7293 64.8457 44.0142 65.6953C43.0761 66.5349 42.2266 68.0162 41.9314 70.1908C40.0618 71.0502 35.3123 72.5375 32.3866 67.3977C32.3866 67.3977 30.6515 64.1665 27.3584 63.9303C27.3584 63.9303 24.1604 63.8879 27.1353 65.9739C27.1353 65.9739 29.2837 67.0071 30.7761 70.8939C30.7761 70.8939 32.7015 76.8962 41.8264 74.8626C41.8428 77.6736 41.8724 80.3228 41.8724 81.1231C41.8724 82.012 41.2688 83.0523 39.6321 82.7407C26.5974 78.2963 17.2002 65.688 17.2002 50.8296C17.2002 32.2549 31.888 17.2 50.0002 17.2Z" fill="url(#paint0_linear_4614_490)"/>
</g>
<defs>
<linearGradient id="paint0_linear_4614_490" x1="50.0002" y1="17.2" x2="50.0002" y2="82.8" gradientUnits="userSpaceOnUse">
<stop stop-color="#FF0099"/>
<stop offset="1" stop-color="#AD00FF"/>
</linearGradient>
<clipPath id="clip0_4614_490">
<rect width="65.6" height="65.6" fill="white" transform="translate(17.2002 17.2)"/>
</clipPath>
</defs>
</svg>
