<svg width="100" height="100" viewBox="0 0 100 100" fill="none" xmlns="http://www.w3.org/2000/svg">
<circle cx="50" cy="50" r="50" fill="#010A08"/>
<path fill-rule="evenodd" clip-rule="evenodd" d="M36.9836 32.7168C36.9836 35.2882 35.0014 37.3691 31.9015 37.3691C28.9223 37.3691 26.9399 35.2882 27.0014 32.7168C26.9399 30.0204 28.9221 28 31.9609 28C35.0014 28 36.9242 30.0204 36.9836 32.7168ZM27.2506 70.9961V41.0444H36.675V70.9941L27.2506 70.9961Z" fill="url(#paint0_linear_4727_7)"/>
<path fill-rule="evenodd" clip-rule="evenodd" d="M44.2281 50.603C44.2281 46.8672 44.1035 43.6822 43.9789 41.0485H52.1649L52.6001 45.1516H52.7861C54.0265 43.2525 57.1263 40.3762 62.1492 40.3762C68.3491 40.3762 73 44.4189 73 53.2349V71H63.5755V54.4014C63.5755 50.5406 62.2126 47.9085 58.802 47.9085C56.1967 47.9085 54.6475 49.6846 54.0284 51.3983C53.7791 52.0119 53.6564 52.8677 53.6564 53.7273V71H44.2319V50.603H44.2281Z" fill="url(#paint1_linear_4727_7)"/>
<defs>
<linearGradient id="paint0_linear_4727_7" x1="50" y1="28" x2="50" y2="71" gradientUnits="userSpaceOnUse">
<stop stop-color="#FF0099"/>
<stop offset="1" stop-color="#AD00FF"/>
</linearGradient>
<linearGradient id="paint1_linear_4727_7" x1="50" y1="28" x2="50" y2="71" gradientUnits="userSpaceOnUse">
<stop stop-color="#FF0099"/>
<stop offset="1" stop-color="#AD00FF"/>
</linearGradient>
</defs>
</svg>
