<svg width="100" height="100" viewBox="0 0 100 100" fill="none" xmlns="http://www.w3.org/2000/svg">
<path d="M73 68C75.6522 68 78.1957 69.0536 80.0711 70.9289C81.9464 72.8043 83 75.3478 83 78C83 80.6522 81.9464 83.1957 80.0711 85.0711C78.1957 86.9464 75.6522 88 73 88C70.3478 88 67.8043 86.9464 65.9289 85.0711C64.0536 83.1957 63 80.6522 63 78C63 75.3478 64.0536 72.8043 65.9289 70.9289C67.8043 69.0536 70.3478 68 73 68ZM71.7543 79.9729L69.5329 77.75C69.4532 77.6704 69.3587 77.6072 69.2546 77.5641C69.1506 77.521 69.0391 77.4988 68.9264 77.4988C68.8138 77.4988 68.7023 77.521 68.5982 77.5641C68.4942 77.6072 68.3996 77.6704 68.32 77.75C68.1592 77.9108 68.0688 78.129 68.0688 78.3564C68.0688 78.5839 68.1592 78.802 68.32 78.9629L71.1486 81.7914C71.228 81.8715 71.3225 81.935 71.4265 81.9783C71.5306 82.0217 71.6423 82.044 71.755 82.044C71.8678 82.044 71.9794 82.0217 72.0835 81.9783C72.1875 81.935 72.282 81.8715 72.3614 81.7914L78.2186 75.9329C78.2993 75.8535 78.3635 75.759 78.4075 75.6548C78.4515 75.5506 78.4744 75.4386 78.4749 75.3255C78.4754 75.2123 78.4536 75.1002 78.4105 74.9956C78.3675 74.8909 78.3042 74.7958 78.2242 74.7158C78.1443 74.6357 78.0493 74.5723 77.9447 74.5291C77.8401 74.486 77.728 74.464 77.6148 74.4644C77.5017 74.4648 77.3897 74.4876 77.2854 74.5314C77.1811 74.5753 77.0865 74.6394 77.0071 74.72L71.7543 79.9729Z" fill="#00C00D"/>
<path d="M59.7766 77.75H13.4792C12.3741 77.75 11.3143 77.311 10.5329 76.5296C9.75149 75.7482 9.3125 74.6884 9.3125 73.5833V26.4792C9.3125 25.3741 9.75149 24.3143 10.5329 23.5329C11.3143 22.7515 12.3741 22.3125 13.4792 22.3125V22.25H86.5208C87.6259 22.25 88.6857 22.689 89.4671 23.4704C90.2485 24.2518 90.6875 25.3116 90.6875 26.4167V73.5833C90.6875 74.6884 90.2485 75.7482 89.4671 76.5296C88.6857 77.311 87.6259 77.75 86.5208 77.75M82.6667 33.4583L50 57.5L17.3333 33.4583" stroke="#00C00D" stroke-width="3" stroke-linecap="round" stroke-linejoin="round"/>
</svg>
