<svg width="100" height="100" viewBox="0 0 100 100" fill="none" xmlns="http://www.w3.org/2000/svg">
<path fill-rule="evenodd" clip-rule="evenodd" d="M68.9585 76.875L75.5747 76.875L72.9985 74.3C72.7547 74.0563 72.7547 73.6562 72.9985 73.4125C73.2429 73.1687 73.6385 73.1687 73.8829 73.4125L77.4185 76.95C77.5679 77.1 77.6148 77.3062 77.5804 77.5C77.6148 77.6938 77.5679 77.9 77.4185 78.05L73.8829 81.5875C73.6385 81.8313 73.2429 81.8313 72.9985 81.5875C72.7547 81.3375 72.7547 80.9437 72.9985 80.7L75.5747 78.125L68.9585 78.125C68.6135 78.125 68.3335 77.8437 68.3335 77.5C68.3335 77.1562 68.6135 76.875 68.9585 76.875ZM73.3335 87.5C78.856 87.5 83.3335 83.025 83.3335 77.5C83.3335 71.975 78.856 67.5 73.3335 67.5C67.811 67.5 63.3335 71.975 63.3335 77.5C63.3335 83.025 67.811 87.5 73.3335 87.5Z" fill="url(#paint0_linear_4775_394)"/>
<path d="M59.7766 77.75H13.4792C12.3741 77.75 11.3143 77.311 10.5329 76.5296C9.75149 75.7482 9.3125 74.6884 9.3125 73.5833V26.4792C9.3125 25.3741 9.75149 24.3143 10.5329 23.5329C11.3143 22.7515 12.3741 22.3125 13.4792 22.3125V22.25H86.5208C87.6259 22.25 88.6857 22.689 89.4671 23.4704C90.2485 24.2518 90.6875 25.3116 90.6875 26.4167V73.5833C90.6875 74.6884 90.2485 75.7482 89.4671 76.5296C88.6857 77.311 87.6259 77.75 86.5208 77.75M82.6667 33.4583L50 57.5L17.3333 33.4583" stroke="url(#paint1_linear_4775_394)" stroke-width="3" stroke-linecap="round" stroke-linejoin="round"/>
<defs>
<linearGradient id="paint0_linear_4775_394" x1="73.3335" y1="67.5" x2="73.3335" y2="87.5" gradientUnits="userSpaceOnUse">
<stop stop-color="#FF0099"/>
<stop offset="1" stop-color="#AD00FF"/>
</linearGradient>
<linearGradient id="paint1_linear_4775_394" x1="50" y1="22.25" x2="50" y2="77.75" gradientUnits="userSpaceOnUse">
<stop stop-color="#FF0099"/>
<stop offset="1" stop-color="#AD00FF"/>
</linearGradient>
</defs>
</svg>
