<svg width="100" height="100" viewBox="0 0 100 100" fill="none" xmlns="http://www.w3.org/2000/svg">
<path d="M73.3335 67.5C67.8235 67.5 63.3335 71.99 63.3335 77.5C63.3335 83.01 67.8235 87.5 73.3335 87.5C78.8435 87.5 83.3335 83.01 83.3335 77.5C83.3335 71.99 78.8435 67.5 73.3335 67.5ZM76.6935 79.8C76.9835 80.09 76.9835 80.57 76.6935 80.86C76.5435 81.01 76.3535 81.08 76.1635 81.08C75.9735 81.08 75.7835 81.01 75.6335 80.86L73.3335 78.56L71.0335 80.86C70.8835 81.01 70.6935 81.08 70.5035 81.08C70.3135 81.08 70.1235 81.01 69.9735 80.86C69.6835 80.57 69.6835 80.09 69.9735 79.8L72.2735 77.5L69.9735 75.2C69.6835 74.91 69.6835 74.43 69.9735 74.14C70.2635 73.85 70.7435 73.85 71.0335 74.14L73.3335 76.44L75.6335 74.14C75.9235 73.85 76.4035 73.85 76.6935 74.14C76.9835 74.43 76.9835 74.91 76.6935 75.2L74.3935 77.5L76.6935 79.8Z" fill="#C80000"/>
<path d="M59.7766 77.75H13.4792C12.3741 77.75 11.3143 77.311 10.5329 76.5296C9.75149 75.7482 9.3125 74.6884 9.3125 73.5833V26.4792C9.3125 25.3741 9.75149 24.3143 10.5329 23.5329C11.3143 22.7515 12.3741 22.3125 13.4792 22.3125V22.25H86.5208C87.6259 22.25 88.6857 22.689 89.4671 23.4704C90.2485 24.2518 90.6875 25.3116 90.6875 26.4167V73.5833C90.6875 74.6884 90.2485 75.7482 89.4671 76.5296C88.6857 77.311 87.6259 77.75 86.5208 77.75M82.6667 33.4583L50 57.5L17.3333 33.4583" stroke="#C80000" stroke-width="3" stroke-linecap="round" stroke-linejoin="round"/>
</svg>
