<svg width="150" height="176" viewBox="0 0 150 176" fill="none" xmlns="http://www.w3.org/2000/svg">
<g clip-path="url(#clip0_4279_56)">
<path fill-rule="evenodd" clip-rule="evenodd" d="M10.4714 165.525H37.8988V10.4751H10.4714V38.2309C14.3387 38.9013 17.8748 44.173 15.9462 49.078C14.7969 52.0012 12.475 53.7886 8.92995 54.3421C7.38955 54.5824 5.96498 54.056 4.99657 53.6509C2.72738 52.7009 1.05861 50.9034 0.319033 48.44C-1.13398 43.6003 2.39176 38.8707 6.00649 38.2309V15.7391C6.00649 13.8187 5.6553 8.09925 6.32541 7.0189C7.33485 5.39157 11.7398 6.00863 14.2985 6.00863H34.0185C35.9776 6.00863 40.3937 5.60649 41.5132 6.43401C42.5452 7.19676 42.3637 8.93841 42.3637 10.7409V66.6248L86.4813 22.5452C90.3435 18.6817 94.206 14.8179 98.0689 10.9536C99.1569 9.86499 101.841 6.60985 103.118 6.11497C103.748 5.87107 104.865 6.00863 105.67 6.00863H133.895C134.565 2.14004 139.834 -1.39729 144.738 0.531901C147.66 1.68164 149.447 4.00436 150 7.55062C150.24 9.09155 149.714 10.5166 149.309 11.4854C148.359 13.7553 146.563 15.4247 144.1 16.1645C139.262 17.618 134.534 14.0908 133.895 10.4751H104.819C84.0028 31.3165 63.1842 52.16 42.3637 73.0055V103.048C63.1978 123.872 84.0341 144.697 104.873 165.525H133.895C134.565 161.656 139.834 158.119 144.738 160.048C147.66 161.198 149.447 163.521 150 167.067C150.24 168.608 149.714 170.033 149.309 171.002C148.359 173.272 146.563 174.941 144.1 175.681C139.262 177.135 134.534 173.608 133.895 169.991H105.67C104.865 169.991 103.748 170.129 103.118 169.885C101.839 169.388 99.1585 166.136 98.0689 165.046L86.4813 153.455C71.7769 138.763 57.071 124.07 42.3637 109.375V165.259C42.3637 167.06 42.5458 168.805 41.5132 169.566C40.3901 170.393 35.9803 169.991 34.0185 169.991H14.2985C11.7418 169.991 7.3323 170.609 6.32541 168.981C5.65461 167.896 6.00649 162.185 6.00649 160.261V137.769C2.13923 137.099 -1.39688 131.827 0.531648 126.922C1.68099 123.999 4.00291 122.212 7.54795 121.658C9.08835 121.418 10.5129 121.944 11.4813 122.349C13.7505 123.299 15.4193 125.097 16.1589 127.56C17.6119 132.4 14.0859 137.129 10.4714 137.769V165.525ZM141.336 4.46664C139.788 5.11858 138.653 5.47117 138.147 7.12524C137.353 9.72105 139.677 12.4762 142.24 12.0171C146.86 11.1893 146.629 4.36157 141.336 4.46664ZM115.503 35.5192C117.031 35.4988 118.259 35.6173 119.33 36.0509C123.224 37.627 126.339 43.1138 123.37 47.9614C121.975 50.2394 118.878 52.686 114.812 51.843C113.843 51.642 113.075 51.1445 112.208 50.9391C99.8771 63.2915 87.5455 75.6451 75.2127 88C86.9586 99.7676 98.7056 111.536 110.454 123.306H110.507C111.732 122.817 113.262 121.968 115.238 122.296C119.659 123.031 124.349 127.131 122.413 132.877C122.044 133.976 121.487 135.001 120.766 135.908C118.149 139.213 112.625 139.542 109.178 136.812C107.449 135.442 105.672 132.393 106.414 128.996C106.623 128.037 107.086 127.281 107.318 126.443L78.4019 97.5179L71.6514 90.765C70.9471 90.0605 69.4838 89.2592 69.791 87.6278C70.0648 86.1746 71.7524 85.1341 72.6613 84.2248L80.2092 76.6744C89.8289 67.0332 99.4498 57.3913 109.072 47.7487C108.798 46.9252 108.363 46.154 108.168 45.1965C107.288 40.8809 110.049 37.4473 112.739 36.2636C113.578 35.8945 114.555 35.899 115.503 35.5192ZM115.982 39.9324C114.313 40.5993 113.166 40.8868 112.633 42.6442C111.841 45.2534 114.194 47.9596 116.832 47.4829C121.335 46.6694 121.054 39.8716 115.982 39.9324ZM7.81372 42.3784C6.23101 43.014 5.13376 43.3677 4.62449 45.037C3.8738 47.4975 6.04274 50.3432 8.66418 49.8756C13.2739 49.0533 13.0472 42.2673 7.81372 42.3784ZM7.81372 126.124C6.23101 126.76 5.13376 127.114 4.62449 128.783C3.8738 131.243 6.04274 134.089 8.66418 133.622C13.2739 132.8 13.0472 126.013 7.81372 126.124ZM114.334 126.709C112.68 127.336 111.614 127.5 110.985 129.102C109.941 131.763 112.095 134.841 115.131 134.26C119.529 133.418 119.253 126.777 114.334 126.709ZM141.336 163.983C139.788 164.635 138.653 164.987 138.147 166.642C137.353 169.237 139.677 171.992 142.24 171.533C146.86 170.706 146.629 163.878 141.336 163.983Z" fill="url(#paint0_linear_4279_56)" stroke="black" stroke-width="0.0906999"/>
</g>
<defs>
<linearGradient id="paint0_linear_4279_56" x1="75.0222" y1="-0.0111694" x2="75.0222" y2="176.016" gradientUnits="userSpaceOnUse">
<stop stop-color="#FF0099"/>
<stop offset="1" stop-color="#AD00FF"/>
</linearGradient>
<clipPath id="clip0_4279_56">
<rect width="150" height="176" fill="white"/>
</clipPath>
</defs>
</svg>
