<svg width="100" height="117" viewBox="0 0 100 117" fill="none" xmlns="http://www.w3.org/2000/svg">
<g clip-path="url(#clip0_4614_2931)">
<path fill-rule="evenodd" clip-rule="evenodd" d="M6.98094 110.037H25.2658V6.96349H6.98094V25.4148C9.55911 25.8605 11.9165 29.365 10.6308 32.6257C9.8646 34.569 8.31666 35.7571 5.9533 36.1251C4.92637 36.2849 3.97665 35.9349 3.33104 35.6656C1.81825 35.0341 0.705743 33.8392 0.212689 32.2015C-0.755986 28.9842 1.59451 25.8401 4.00433 25.4148V10.4629C4.00433 9.1862 3.7702 5.3841 4.21694 4.66591C4.8899 3.5841 7.82654 3.99431 9.53232 3.99431H22.679C23.985 3.99431 26.9291 3.72697 27.6755 4.27709C28.3634 4.78415 28.2425 5.94195 28.2425 7.14023V44.2904L57.6542 14.9874C60.229 12.4191 62.804 9.85048 65.3792 7.28162C66.1046 6.55791 67.8938 4.39398 68.7456 4.065C69.1656 3.90286 69.9097 3.99431 70.4466 3.99431H89.263C89.7098 1.42257 93.223 -0.928985 96.4919 0.353525C98.4402 1.11784 99.6312 2.66192 100 5.01938C100.16 6.04375 99.8094 6.9911 99.5394 7.63509C98.9062 9.14411 97.7084 10.2538 96.0667 10.7457C92.8413 11.7119 89.6893 9.36711 89.263 6.96349H69.8796C56.0018 20.8183 42.1228 34.6745 28.2425 48.532V68.5033C42.1319 82.3464 56.0227 96.1908 69.915 110.037H89.263C89.7098 107.465 93.223 105.113 96.4919 106.396C98.4402 107.16 99.6312 108.704 100 111.062C100.16 112.086 99.8094 113.033 99.5394 113.677C98.9062 115.186 97.7084 116.296 96.0667 116.788C92.8413 117.754 89.6893 115.41 89.263 113.006H70.4466C69.9101 113.006 69.1652 113.097 68.7456 112.935C67.8923 112.605 66.1057 110.443 65.3792 109.718L57.6542 102.013C47.8512 92.2458 38.0473 82.4782 28.2425 72.7097V109.86C28.2425 111.057 28.3639 112.217 27.6755 112.723C26.9267 113.273 23.9869 113.006 22.679 113.006H9.53232C7.82785 113.006 4.8882 113.416 4.21694 112.334C3.76974 111.613 4.00433 107.816 4.00433 106.537V91.5852C1.42615 91.1395 -0.931252 87.6351 0.354432 84.3743C1.12066 82.4309 2.66861 81.2429 5.03197 80.8749C6.0589 80.7151 7.00861 81.0651 7.65422 81.3344C9.16701 81.9661 10.2795 83.1608 10.7726 84.7985C11.7412 88.0158 9.39058 91.16 6.98094 91.5852V110.037ZM77.0022 23.6121C78.021 23.5986 78.8395 23.6774 79.5536 23.9656C82.1496 25.0133 84.2261 28.6608 82.2467 31.8834C81.3165 33.3978 79.252 35.0242 76.5415 34.4638C75.8952 34.3301 75.3831 33.9994 74.8052 33.8629C66.5848 42.0744 58.3636 50.2868 50.1418 58.5C57.9724 66.3227 65.8038 74.1463 73.6358 81.9707H73.6712C74.488 81.6455 75.5079 81.081 76.825 81.2991C79.7729 81.7876 82.8991 84.5132 81.6089 88.3332C81.363 89.0634 80.9912 89.7453 80.5103 90.348C78.7662 92.5449 75.0833 92.7637 72.7853 90.9489C71.6326 90.0384 70.448 88.0112 70.9427 85.7529C71.0823 85.1155 71.3909 84.6133 71.5451 84.0562L52.268 64.8272L47.7676 60.3381C47.2981 59.8697 46.3225 59.337 46.5274 58.2526C46.7098 57.2865 47.8349 56.5948 48.4409 55.9903L53.4728 50.971C59.886 44.5618 66.2999 38.1522 72.7145 31.742C72.5323 31.1946 72.2421 30.6819 72.112 30.0453C71.5256 27.1764 73.3661 24.8939 75.1595 24.107C75.56 23.9313 75.848 23.8683 76.258 23.7535C76.3537 23.7267 76.4965 23.689 76.6028 23.6557C76.6769 23.6323 76.9281 23.6416 77.0022 23.6121ZM77.5337 26.4753C78.9366 26.4753 80.1081 27.7613 80.1081 29.0741C80.1081 30.4195 78.9409 31.636 77.5337 31.636C76.1741 31.636 74.9115 30.5249 74.9115 29.0556C74.9115 27.7347 76.0011 26.4753 77.5337 26.4753ZM94.5429 2.89854C95.9458 2.89854 97.1174 4.18462 97.1174 5.49735C97.1174 6.84278 95.9501 8.05926 94.5429 8.05926C93.1833 8.05926 91.9207 6.94822 91.9207 5.4789C91.9207 4.15793 93.0103 2.89854 94.5429 2.89854ZM76.3643 84.1622C77.7673 84.1622 78.9388 85.4482 78.9388 86.761C78.9388 88.1066 77.7715 89.3229 76.3643 89.3229C75.0047 89.3229 73.7421 88.212 73.7421 86.7426C73.7421 85.4217 74.8317 84.1622 76.3643 84.1622ZM94.5429 108.941C95.9458 108.941 97.1174 110.227 97.1174 111.539C97.1174 112.885 95.9501 114.101 94.5429 114.101C93.1833 114.101 91.9207 112.991 91.9207 111.521C91.9207 110.2 93.0103 108.941 94.5429 108.941ZM5.52807 83.7381C6.93094 83.7381 8.10241 85.024 8.10241 86.3368C8.10241 87.6825 6.93523 88.8988 5.52807 88.8988C4.16854 88.8988 2.90581 87.7878 2.90581 86.3184C2.90581 84.9975 3.99543 83.7381 5.52807 83.7381ZM5.52807 28.1012C6.93094 28.1012 8.10241 29.3873 8.10241 30.7C8.10241 32.0455 6.93523 33.262 5.52807 33.262C4.16854 33.262 2.90581 32.1509 2.90581 30.6816C2.90581 29.3606 3.99543 28.1012 5.52807 28.1012Z" fill="#FAEFFF"/>
<path fill-rule="evenodd" clip-rule="evenodd" d="M77.5337 26.4753C78.9366 26.4753 80.1081 27.7614 80.1081 29.0741C80.1081 30.4196 78.9408 31.636 77.5337 31.636C76.174 31.636 74.9114 30.5249 74.9114 29.0556C74.9114 27.7347 76.0011 26.4753 77.5337 26.4753ZM76.3643 84.1622C77.7672 84.1622 78.9387 85.4482 78.9387 86.761C78.9387 88.1067 77.7715 89.323 76.3643 89.323C75.0046 89.323 73.742 88.212 73.742 86.7426C73.742 85.4217 74.8317 84.1622 76.3643 84.1622ZM94.5429 2.89856C95.9458 2.89856 97.1173 4.18464 97.1173 5.49737C97.1173 6.8428 95.9501 8.05928 94.5429 8.05928C93.1832 8.05928 91.9206 6.94824 91.9206 5.47892C91.9206 4.15795 93.0103 2.89856 94.5429 2.89856ZM94.5429 108.941C95.9458 108.941 97.1173 110.227 97.1173 111.54C97.1173 112.885 95.9501 114.101 94.5429 114.101C93.1832 114.101 91.9206 112.991 91.9206 111.521C91.9206 110.2 93.0103 108.941 94.5429 108.941ZM5.52802 83.7381C6.93089 83.7381 8.10236 85.024 8.10236 86.3368C8.10236 87.6825 6.93517 88.8988 5.52802 88.8988C4.16848 88.8988 2.90576 87.7878 2.90576 86.3184C2.90576 84.9975 3.99538 83.7381 5.52802 83.7381ZM5.52802 28.1013C6.93089 28.1013 8.10236 29.3873 8.10236 30.7001C8.10236 32.0455 6.93517 33.262 5.52802 33.262C4.16848 33.262 2.90576 32.1509 2.90576 30.6816C2.90576 29.3607 3.99538 28.1013 5.52802 28.1013Z" fill="#FF0099"/>
</g>
<defs>
<clipPath id="clip0_4614_2931">
<rect width="100" height="117" fill="white"/>
</clipPath>
</defs>
</svg>
