<svg width="100" height="117" viewBox="0 0 100 117" fill="none" xmlns="http://www.w3.org/2000/svg">
<g clip-path="url(#clip0_4614_2937)">
<path fill-rule="evenodd" clip-rule="evenodd" d="M7.1336 109.403H23.4387V7.28185H7.1336V25.6616C9.60464 26.3385 11.7875 29.8661 10.4867 33.2935C9.70356 35.3569 8.13732 36.5514 5.75293 36.9344C2.48225 37.4599 -0.727443 33.5376 0.0987572 29.9327C0.563189 27.9063 1.84978 26.179 3.7148 25.6616V10.5377C3.7148 9.19411 3.48268 5.30623 3.87917 4.55115C4.57936 3.21731 7.02568 3.60591 8.94162 3.60591H21.4334C22.9584 3.60591 25.4047 3.27809 26.2986 4.02602C26.9552 4.57541 26.8575 5.74265 26.8575 7.00178V43.7612L54.0435 14.8438C56.4214 12.3117 58.7992 9.77942 61.177 7.24684C61.8782 6.49996 63.4666 4.42046 64.2999 4.06103C64.8696 3.8153 65.9298 3.956 66.6668 3.956H89.415C90.1701 1.19974 93.4969 -1.03316 96.7786 0.490112C98.6754 1.37052 99.6523 3.03141 100 5.60142C100.46 8.99747 96.747 12.3375 93.3598 11.4479C91.3338 10.9158 90.1172 9.58681 89.415 7.63194H65.6806C52.7408 21.4241 39.7997 35.2177 26.8575 49.0125V68.4425C39.6875 82.0946 52.519 95.7481 65.3519 109.403C73.2516 109.391 81.1521 109.38 89.0534 109.368C89.5297 106.856 92.965 104.501 96.0225 105.762C98.0258 106.589 99.2329 108.187 99.6057 110.768C100.15 114.534 96.3138 117.924 92.7681 116.825C90.8667 116.236 89.7243 114.92 89.0205 113.044H66.2395C65.514 113.044 64.463 113.183 63.9055 112.939C63.0754 112.575 61.4834 110.5 60.7825 109.753L53.7477 102.261C44.7852 92.7279 35.8218 83.1938 26.8575 73.6589V109.683C26.8575 110.981 26.9443 112.098 26.2658 112.659C25.3884 113.384 22.9079 113.044 21.4334 113.044H8.9745C7.10842 113.044 4.63074 113.431 3.91204 112.169C3.49761 111.441 3.7148 107.779 3.7148 106.427V91.7585C1.24376 91.0814 -0.93908 87.5539 0.361742 84.1265C1.14485 82.0631 2.71108 80.8686 5.09547 80.4856C8.36615 79.9601 11.5758 83.8825 10.7496 87.4874C10.2852 89.5137 8.99863 91.2411 7.1336 91.7585V109.403ZM71.9594 23.7711C76.9242 23.6791 79.3019 29.3515 76.3644 33.3635C75.4798 34.5716 73.4078 35.783 71.2362 35.219C70.8085 35.108 70.0573 35.0499 69.8226 34.7289C62.3282 42.7218 54.8331 50.7155 47.3374 58.71C54.4591 66.3063 61.5816 73.9032 68.7049 81.5009H68.7378C69.298 81.3066 69.8354 81.0661 70.513 80.9407C72.9173 80.4961 74.9903 82.2553 75.8055 83.6714C77.1507 86.0083 76.535 89.5505 74.8522 90.9883C74.2917 91.4672 73.6563 91.8989 72.9127 92.1786C69.1218 93.6045 66.2582 90.5223 65.7464 87.3824C65.5278 86.0405 66.0698 85.0392 66.2723 84.0915L48.8167 65.5018L44.6418 61.0556C44.0494 60.4248 43.2069 59.9091 43.1297 58.745C43.0573 57.6514 43.9771 57.0723 44.4775 56.5395L48.8496 51.8833L67.39 32.1382C67.1692 31.6595 67.0036 31.154 66.8969 30.6328C66.2539 27.4267 68.37 24.9616 70.25 24.1562C70.7615 23.937 71.388 24.0067 71.9594 23.7711ZM72.1895 27.447C73.3516 27.447 74.2276 28.5211 74.2276 29.5826C74.2276 30.4284 73.5324 31.6831 72.2224 31.6831C71.3686 31.6831 70.25 30.9582 70.25 29.5476C70.25 28.5766 71.0278 27.447 72.1895 27.447ZM94.5103 3.67593C95.6724 3.67593 96.5485 4.74997 96.5485 5.81148C96.5485 6.65733 95.8532 7.91201 94.5432 7.91201C93.6895 7.91201 92.5708 7.18715 92.5708 5.77647C92.5708 4.80549 93.3486 3.67593 94.5103 3.67593ZM5.39133 29.0224C6.55336 29.0224 7.42946 30.0965 7.42946 31.158C7.42946 32.0038 6.73419 33.2585 5.4242 33.2585C4.57062 33.2585 3.45181 32.5336 3.45181 31.123C3.45181 30.152 4.22966 29.0224 5.39133 29.0224ZM5.39133 84.1616C6.55336 84.1616 7.42946 85.2356 7.42946 86.2971C7.42946 87.1429 6.73419 88.3976 5.4242 88.3976C4.57062 88.3976 3.45181 87.6726 3.45181 86.2621C3.45181 85.2913 4.22966 84.1616 5.39133 84.1616ZM71.1047 84.5817C72.2667 84.5817 73.1428 85.6557 73.1428 86.7172C73.1428 87.563 72.4475 88.8177 71.1376 88.8177C70.2838 88.8177 69.1652 88.0927 69.1652 86.6822C69.1652 85.7114 69.9429 84.5817 71.1047 84.5817ZM94.1487 109.123C95.3108 109.123 96.1869 110.197 96.1869 111.258C96.1869 112.104 95.4916 113.359 94.1816 113.359C93.3279 113.359 92.2092 112.634 92.2092 111.223C92.2092 110.253 92.987 109.123 94.1487 109.123Z" fill="#FAEFFF"/>
<path fill-rule="evenodd" clip-rule="evenodd" d="M90.0394 8.99733C90.5864 9.50272 90.9099 10.1403 91.5516 10.5727C86.621 15.8235 81.69 21.0749 76.7587 26.3268L76.6601 26.2568C76.3744 25.5748 75.7058 25.2794 75.2794 24.7514C80.1989 19.5006 85.1189 14.2492 90.0394 8.99733ZM5.39117 29.0225C6.55321 29.0225 7.42931 30.0965 7.42931 31.158C7.42931 32.0039 6.73404 33.2585 5.42405 33.2585C4.57046 33.2585 3.45166 32.5337 3.45166 31.123C3.45166 30.152 4.2295 29.0225 5.39117 29.0225ZM4.37211 36.7945C5.07001 36.8983 5.77808 36.8983 6.47599 36.7945V80.6257C5.77808 80.5219 5.07001 80.5219 4.37211 80.6257V36.7945ZM75.641 89.9031C80.8126 95.3988 85.9846 100.895 91.1571 106.392C91.1463 106.427 91.1351 106.462 91.1242 106.497C90.9707 106.602 90.8173 106.707 90.664 106.812C90.3353 107.209 90.0066 107.606 89.6778 108.003L77.8435 95.3995L75.0822 92.4587C74.8567 92.2186 74.1597 91.6854 74.2275 91.4085C74.8004 91.1578 75.3254 90.4426 75.641 89.9031ZM5.39117 84.1616C6.55321 84.1616 7.42931 85.2357 7.42931 86.2971C7.42931 87.143 6.73404 88.3977 5.42405 88.3977C4.57046 88.3977 3.45166 87.6726 3.45166 86.2621C3.45166 85.2913 4.2295 84.1616 5.39117 84.1616ZM94.5102 3.67596C95.6722 3.67596 96.5483 4.75 96.5483 5.81151C96.5483 6.65736 95.853 7.91205 94.543 7.91205C93.6893 7.91205 92.5707 7.18719 92.5707 5.7765C92.5707 4.80553 93.3484 3.67596 94.5102 3.67596ZM72.1893 27.4471C73.3514 27.4471 74.2275 28.5211 74.2275 29.5826C74.2275 30.4285 73.5322 31.6831 72.2222 31.6831C71.3685 31.6831 70.2498 30.9583 70.2498 29.5476C70.2498 28.5766 71.0276 27.4471 72.1893 27.4471ZM71.1045 84.5817C72.2666 84.5817 73.1427 85.6558 73.1427 86.7173C73.1427 87.5631 72.4474 88.8178 71.1374 88.8178C70.2837 88.8178 69.165 88.0928 69.165 86.6822C69.165 85.7114 69.9428 84.5817 71.1045 84.5817ZM94.1486 109.123C95.3106 109.123 96.1867 110.197 96.1867 111.259C96.1867 112.104 95.4914 113.359 94.1814 113.359C93.3277 113.359 92.2091 112.634 92.2091 111.224C92.2091 110.253 92.9868 109.123 94.1486 109.123Z" fill="#AD00FF"/>
</g>
<defs>
<clipPath id="clip0_4614_2937">
<rect width="100" height="117" fill="white"/>
</clipPath>
</defs>
</svg>
