<svg width="250" height="250" viewBox="0 0 250 250" fill="none" xmlns="http://www.w3.org/2000/svg">
<path fill-rule="evenodd" clip-rule="evenodd" d="M51.9258 20.8334C37.661 20.8334 27.1059 33.3186 27.5784 46.8588C28.0318 59.8672 27.4428 76.7147 23.2013 90.4541C18.9471 104.233 11.7521 112.963 0 114.083V126.735C11.7521 127.856 18.9471 136.585 23.2013 150.366C27.4428 164.104 28.0318 180.952 27.5784 193.96C27.1059 207.499 37.661 219.985 51.9279 219.985H198.093C212.358 219.985 222.911 207.501 222.439 193.96C221.985 180.952 222.574 164.104 226.816 150.366C231.072 136.585 238.248 127.856 250 126.735V114.083C238.248 112.963 231.072 104.233 226.816 90.4541C222.574 76.7168 221.985 59.8672 222.439 46.8588C222.911 33.3207 212.358 20.8334 198.093 20.8334H51.9258ZM169.492 143.424C169.492 162.069 155.584 173.376 132.506 173.376H93.2203C92.0966 173.376 91.0188 172.929 90.2242 172.134C89.4295 171.34 88.983 170.263 88.983 169.139V71.6809C88.983 70.557 89.4295 69.4793 90.2242 68.6846C91.0188 67.8899 92.0966 67.4436 93.2203 67.4436H132.282C151.525 67.4436 164.154 77.8672 164.154 93.8715C164.154 105.104 155.659 115.161 144.834 116.922V117.509C159.57 119.126 169.492 129.329 169.492 143.424ZM128.223 80.8758H105.822V112.516H124.689C139.273 112.516 147.316 106.643 147.316 96.1448C147.316 86.308 140.4 80.8758 128.223 80.8758ZM105.822 125.071V159.94H129.047C144.231 159.94 152.275 153.846 152.275 142.395C152.275 130.942 144.006 125.069 128.07 125.069L105.822 125.071Z" fill="url(#paint0_linear_4327_38)"/>
<defs>
<linearGradient id="paint0_linear_4327_38" x1="125" y1="20.8334" x2="125" y2="219.985" gradientUnits="userSpaceOnUse">
<stop stop-color="#FF0099"/>
<stop offset="1" stop-color="#AD00FF"/>
</linearGradient>
</defs>
</svg>
