<svg width="250" height="250" viewBox="0 0 250 250" fill="none" xmlns="http://www.w3.org/2000/svg">
<path d="M46.875 218.75L31.25 23.4375H218.75L203.125 218.75L125 242.188L46.875 218.75Z" fill="url(#paint0_linear_4327_26)"/>
<path d="M203.125 39.0625H125V230.469L187.5 210.938L203.125 39.0625Z" fill="url(#paint1_linear_4327_26)"/>
<path d="M152.344 136.719H74.2188L70.3125 109.375L132.812 89.8438H70.3125L66.4062 66.4062H187.5L183.594 93.75L132.812 113.281H179.688L171.875 187.5L125 203.125L78.125 187.5L74.2188 148.438H97.6562L101.562 167.969L125 175.781L148.438 167.969L152.344 136.719Z" fill="white"/>
<defs>
<linearGradient id="paint0_linear_4327_26" x1="125" y1="23.4375" x2="125" y2="242.188" gradientUnits="userSpaceOnUse">
<stop stop-color="#BC0071"/>
<stop offset="1" stop-color="#8A00CC"/>
</linearGradient>
<linearGradient id="paint1_linear_4327_26" x1="164.062" y1="39.0625" x2="164.063" y2="230.469" gradientUnits="userSpaceOnUse">
<stop stop-color="#FF0099"/>
<stop offset="1" stop-color="#AD00FF"/>
</linearGradient>
</defs>
</svg>
