<svg width="250" height="250" viewBox="0 0 250 250" fill="none" xmlns="http://www.w3.org/2000/svg">
<path d="M20.1981 136.041C14.1006 129.943 14.1006 120.057 20.1981 113.959L113.959 20.1981C120.057 14.1006 129.943 14.1006 136.041 20.1981L229.802 113.959C235.899 120.057 235.899 129.943 229.802 136.041L136.041 229.802C129.943 235.899 120.057 235.899 113.959 229.802L20.1981 136.041Z" fill="url(#paint0_linear_4327_19)"/>
<path d="M94.9135 39.5431L85.4189 49.0379L109.942 73.5607C108.949 75.6889 108.396 78.0625 108.396 80.5656C108.396 87.6718 112.86 93.7351 119.138 96.1031V156.092C112.86 158.46 108.396 164.523 108.396 171.63C108.396 180.798 115.828 188.231 124.997 188.231C134.166 188.231 141.599 180.798 141.599 171.63C141.599 165.187 137.929 159.602 132.566 156.85V96.1851L156.007 119.627C155.063 121.712 154.538 124.027 154.538 126.464C154.538 135.633 161.971 143.066 171.14 143.066C180.309 143.066 187.742 135.633 187.742 126.464C187.742 117.295 180.309 109.862 171.14 109.862C169.358 109.862 167.642 110.143 166.033 110.662L140.857 85.4867C141.339 83.932 141.599 82.2789 141.599 80.5656C141.599 71.3967 134.166 63.9639 124.997 63.9639C123.284 63.9639 121.631 64.2235 120.076 64.7054L94.9135 39.5431Z" fill="white"/>
<defs>
<linearGradient id="paint0_linear_4327_19" x1="125" y1="15.625" x2="125" y2="234.375" gradientUnits="userSpaceOnUse">
<stop stop-color="#FF0099"/>
<stop offset="1" stop-color="#AD00FF"/>
</linearGradient>
</defs>
</svg>
