<svg width="250" height="250" viewBox="0 0 250 250" fill="none" xmlns="http://www.w3.org/2000/svg">
<g clip-path="url(#clip0_4327_30)">
<path d="M0 0H250V250H0V0Z" fill="url(#paint0_linear_4327_30)"/>
<path d="M65.7343 208.918L84.866 197.34C88.5569 203.884 91.9144 209.421 99.968 209.421C107.688 209.421 112.555 206.401 112.555 194.655V114.774H136.049V194.987C136.049 219.321 121.785 230.396 100.975 230.396C82.1811 230.396 71.2716 220.663 65.7339 208.916" fill="white"/>
<path d="M148.81 206.401L167.939 195.325C172.975 203.549 179.519 209.59 191.098 209.59C200.833 209.59 207.04 204.723 207.04 198.01C207.04 189.955 200.664 187.102 189.923 182.404L184.051 179.885C167.101 172.671 155.857 163.609 155.857 144.477C155.857 126.857 169.282 113.431 190.26 113.431C205.195 113.431 215.935 118.634 223.654 132.227L205.362 143.973C201.334 136.758 196.972 133.906 190.26 133.906C183.379 133.906 179.016 138.269 179.016 143.973C179.016 151.022 183.379 153.875 193.447 158.239L199.32 160.756C219.291 169.315 230.535 178.04 230.535 197.674C230.535 218.82 213.921 230.398 191.602 230.398C169.786 230.398 155.689 219.994 148.81 206.401Z" fill="white"/>
</g>
<defs>
<linearGradient id="paint0_linear_4327_30" x1="125" y1="0" x2="125" y2="250" gradientUnits="userSpaceOnUse">
<stop stop-color="#FF0099"/>
<stop offset="1" stop-color="#AD00FF"/>
</linearGradient>
<clipPath id="clip0_4327_30">
<rect width="250" height="250" fill="white"/>
</clipPath>
</defs>
</svg>
