<svg width="250" height="250" viewBox="0 0 250 250" fill="none" xmlns="http://www.w3.org/2000/svg">
<path d="M24.7422 27.4766H225.258V222.523H24.7422V27.4766Z" fill="#010A08"/>
<path d="M24.7422 27.4766H225.258V222.523H24.7422V27.4766ZM15.625 231.641H234.375V18.3594H15.625V231.641ZM163.102 105.859C155.898 105.859 153.437 109.508 153.437 112.516C153.437 115.797 155.078 118.078 164.742 123.086C179.055 130.016 183.492 136.664 183.492 146.422C183.492 161.008 172.375 168.844 157.336 168.844C150.882 169.083 144.467 167.742 138.648 164.937C138.008 164.664 137.922 164.211 137.922 163.477V150.062C137.922 149.148 138.375 148.875 139.016 149.336C144.48 152.85 150.84 154.716 157.336 154.711C164.539 154.711 167.547 151.703 167.547 147.602C167.547 144.32 165.453 141.406 156.242 136.664C143.297 130.469 137.922 124.164 137.922 113.695C137.922 101.938 147.125 92.1875 163.078 92.1875C168.631 91.949 174.176 92.8175 179.391 94.7422C179.691 94.9371 179.934 95.2085 180.095 95.5284C180.255 95.8483 180.328 96.2052 180.305 96.5625V109.063C180.305 109.789 179.852 110.25 178.937 109.977C174.118 107.202 168.638 105.785 163.078 105.875L163.102 105.859ZM84.7109 116.703C86.8047 116.883 88.4453 116.883 92.0938 116.883C102.758 116.883 112.781 113.148 112.781 98.6562C112.781 87.0781 105.578 81.25 93.4609 81.25C89.8125 81.25 86.3516 81.4297 84.7109 81.5234V116.703ZM68.4844 68.2656C68.4844 67.625 69.7578 67.1719 70.4922 67.1719C76.3281 66.8984 84.9844 66.7188 94.0078 66.7188C119.258 66.7188 129.102 80.5703 129.102 98.2578C129.102 121.406 112.328 131.344 91.7344 131.344C88.2734 131.344 87.0859 131.164 84.625 131.164V166.164C84.625 166.891 84.3516 167.258 83.5313 167.258H69.5859C68.8594 167.258 68.4922 166.984 68.4922 166.164V68.3047L68.4844 68.2656Z" fill="url(#paint0_linear_4327_55)"/>
<defs>
<linearGradient id="paint0_linear_4327_55" x1="125" y1="18.3594" x2="125" y2="231.641" gradientUnits="userSpaceOnUse">
<stop stop-color="#FF0099"/>
<stop offset="1" stop-color="#AD00FF"/>
</linearGradient>
</defs>
</svg>
