<svg width="250" height="250" viewBox="0 0 250 250" fill="none" xmlns="http://www.w3.org/2000/svg">
<path d="M205.55 85.7653C202.957 84.8726 200.269 84.028 197.502 83.2292C197.957 81.3732 198.375 79.5411 198.746 77.7402C204.838 48.1688 200.855 24.3459 187.253 16.5024C174.211 8.98155 152.882 16.8233 131.341 35.5701C129.269 37.3728 127.192 39.2814 125.116 41.2816C123.732 39.9582 122.351 38.6793 120.973 37.456C98.3972 17.4107 75.7682 8.9633 62.1803 16.8295C49.1508 24.3722 45.2922 46.768 50.7759 74.793C51.3054 77.4999 51.9244 80.2642 52.6244 83.0748C49.4218 83.9839 46.3299 84.9531 43.3716 85.9842C16.9036 95.2121 0 109.674 0 124.676C0 140.169 18.1461 155.709 45.7145 165.132C47.8901 165.876 50.1476 166.579 52.474 167.246C51.7188 170.286 51.062 173.265 50.5107 176.17C45.282 203.709 49.3653 225.576 62.36 233.071C75.7825 240.811 98.3091 232.855 120.244 213.681C121.978 212.165 123.718 210.558 125.461 208.873C127.72 211.049 129.976 213.108 132.22 215.039C153.466 233.323 174.451 240.706 187.434 233.19C200.843 225.427 205.201 201.937 199.543 173.358C199.111 171.175 198.608 168.945 198.044 166.675C199.625 166.208 201.179 165.725 202.693 165.223C231.353 155.727 250 140.376 250 124.676C250 109.62 232.551 95.0604 205.55 85.7653ZM199.334 155.086C197.967 155.538 196.564 155.976 195.135 156.4C191.971 146.383 187.701 135.732 182.475 124.728C187.462 113.986 191.567 103.471 194.642 93.5193C197.2 94.2594 199.682 95.0399 202.074 95.8636C225.208 103.828 239.32 115.603 239.32 124.676C239.32 134.34 224.08 146.886 199.334 155.086ZM189.066 175.432C191.568 188.069 191.925 199.495 190.268 208.427C188.779 216.453 185.785 221.804 182.082 223.947C174.204 228.507 157.355 222.579 139.185 206.943C137.102 205.151 135.004 203.237 132.899 201.211C139.943 193.507 146.983 184.551 153.854 174.603C165.94 173.531 177.358 171.778 187.713 169.384C188.223 171.441 188.676 173.459 189.066 175.432ZM85.2306 223.159C77.5331 225.877 71.4024 225.955 67.6964 223.818C59.8107 219.27 56.5324 201.713 61.0041 178.162C61.5163 175.465 62.126 172.694 62.8286 169.862C73.0698 172.127 84.4043 173.757 96.5189 174.739C103.436 184.472 110.68 193.419 117.98 201.253C116.385 202.792 114.796 204.258 113.216 205.639C103.517 214.118 93.7968 220.133 85.2306 223.159ZM49.1686 155.026C36.9783 150.86 26.9112 145.445 20.0106 139.536C13.81 134.225 10.6795 128.954 10.6795 124.676C10.6795 115.572 24.2514 103.961 46.8871 96.0692C49.6336 95.1115 52.5087 94.2091 55.4924 93.3614C58.6207 103.538 62.7245 114.177 67.6769 124.936C62.6604 135.854 58.4984 146.663 55.3393 156.958C53.2123 156.347 51.1515 155.704 49.1686 155.026ZM61.2569 72.742C56.5586 48.7309 59.6789 30.6177 67.5309 26.0725C75.8946 21.2305 94.3891 28.1342 113.882 45.4423C115.128 46.5486 116.379 47.7065 117.633 48.9044C110.369 56.7039 103.192 65.5833 96.336 75.2593C84.5783 76.3491 73.3234 78.0998 62.9755 80.444C62.3249 77.827 61.7486 75.2558 61.2569 72.742ZM169.096 99.3701C166.622 95.0973 164.082 90.9254 161.493 86.8675C169.47 87.8759 177.112 89.2144 184.289 90.8525C182.134 97.7579 179.449 104.978 176.288 112.38C174.02 108.074 171.621 103.733 169.096 99.3701ZM125.119 56.537C130.045 61.8738 134.979 67.8323 139.831 74.2973C134.941 74.0663 129.991 73.9462 125 73.9462C120.056 73.9462 115.142 74.0636 110.283 74.2906C115.14 67.8857 120.116 61.9353 125.119 56.537ZM80.8612 99.444C78.3902 103.729 76.0361 108.046 73.804 112.372C70.6939 104.996 68.0333 97.7428 65.8599 90.7394C72.9928 89.1432 80.5991 87.8381 88.525 86.8488C85.8995 90.9441 83.339 95.1476 80.8612 99.444ZM88.7532 163.265C80.5644 162.351 72.8437 161.113 65.7127 159.561C67.9207 152.432 70.6401 145.025 73.816 137.49C76.0539 141.812 78.4173 146.131 80.9035 150.426C83.436 154.8 86.0601 159.086 88.7532 163.265ZM125.415 193.567C120.353 188.106 115.304 182.065 110.373 175.566C115.16 175.754 120.04 175.85 125 175.85C130.096 175.85 135.133 175.736 140.091 175.515C135.223 182.13 130.307 188.181 125.415 193.567ZM176.39 137.106C179.731 144.722 182.548 152.091 184.784 159.098C177.536 160.752 169.71 162.084 161.464 163.073C164.059 158.961 166.621 154.717 169.138 150.352C171.685 145.936 174.103 141.513 176.39 137.106ZM159.887 145.017C155.979 151.793 151.967 158.261 147.894 164.367C140.476 164.897 132.811 165.17 125 165.17C117.22 165.17 109.653 164.929 102.365 164.456C98.128 158.27 94.0287 151.782 90.1456 145.075C86.2728 138.386 82.7093 131.64 79.4795 124.932C82.7084 118.209 86.2635 111.455 90.114 104.778L90.1132 104.78C93.9739 98.0846 98.0372 91.6285 102.235 85.4814C109.67 84.9193 117.294 84.6261 125 84.6261C132.739 84.6261 140.374 84.9216 147.807 85.4885C151.941 91.5907 155.976 98.0258 159.852 104.722C163.772 111.493 167.373 118.201 170.63 124.78C167.383 131.473 163.79 138.249 159.887 145.017ZM181.919 25.7548C190.29 30.5826 193.546 50.053 188.286 75.5846C187.951 77.2138 187.573 78.8732 187.162 80.5548C176.79 78.1616 165.528 76.3807 153.736 75.2745C146.866 65.4921 139.748 56.5989 132.602 48.8995C134.523 47.0515 136.442 45.2893 138.352 43.6263C156.809 27.5642 174.059 21.2225 181.919 25.7548ZM125 102.352C137.329 102.352 147.324 112.346 147.324 124.676C147.324 137.005 137.329 147 125 147C112.671 147 102.676 137.005 102.676 124.676C102.676 112.346 112.671 102.352 125 102.352Z" fill="url(#paint0_linear_4327_35)"/>
<defs>
<linearGradient id="paint0_linear_4327_35" x1="125" y1="13.6719" x2="125" y2="236.101" gradientUnits="userSpaceOnUse">
<stop stop-color="#FF0099"/>
<stop offset="1" stop-color="#AD00FF"/>
</linearGradient>
</defs>
</svg>
