<svg width="250" height="250" viewBox="0 0 250 250" fill="none" xmlns="http://www.w3.org/2000/svg">
<path d="M76.2363 147.058C88.7537 147.058 98.9011 136.911 98.9011 124.393C98.9011 111.876 88.7537 101.729 76.2363 101.729C63.7188 101.729 53.5714 111.876 53.5714 124.393C53.5714 136.911 63.7188 147.058 76.2363 147.058ZM22.6648 192.388C35.1823 192.388 45.3297 182.24 45.3297 169.723C45.3297 157.206 35.1823 147.058 22.6648 147.058C10.1474 147.058 0 157.206 0 169.723C0 182.24 10.1474 192.388 22.6648 192.388ZM227.335 192.388C239.853 192.388 250 182.24 250 169.723C250 157.206 239.853 147.058 227.335 147.058C214.818 147.058 204.67 157.206 204.67 169.723C204.67 182.24 214.818 192.388 227.335 192.388Z" fill="url(#paint0_linear_4428_53)"/>
<path d="M152.896 125.348C152.171 117.776 151.802 111.474 146.001 107.044C138.655 101.434 130.333 105.074 120.082 101.374C110.01 98.9376 102.539 89.9947 102.539 79.3354C102.539 66.8014 112.869 56.6406 125.612 56.6406C135.049 56.6406 143.164 62.2143 146.738 70.1978C152.208 80.588 148.653 91.1621 155.526 96.4884C163.664 102.795 174.635 98.1767 186.877 104.152C190.811 105.96 194.14 108.827 196.486 112.38C198.833 115.933 200.195 120.172 200.195 124.725C200.195 135.384 192.724 144.327 182.652 146.764C172.401 150.464 164.079 146.824 156.733 152.434C148.472 158.742 152.894 169.296 146.161 180.444C142.34 187.785 134.572 192.809 125.612 192.809C112.869 192.809 102.539 182.648 102.539 170.114C102.539 161.009 107.99 153.157 115.857 149.542C128.099 143.566 139.071 148.185 147.209 141.878C151.903 138.24 152.896 132.627 152.896 125.348Z" fill="url(#paint1_linear_4428_53)"/>
<defs>
<linearGradient id="paint0_linear_4428_53" x1="125" y1="101.729" x2="125" y2="192.388" gradientUnits="userSpaceOnUse">
<stop stop-color="#BC0071"/>
<stop offset="1" stop-color="#8A00CC"/>
</linearGradient>
<linearGradient id="paint1_linear_4428_53" x1="151.367" y1="56.6406" x2="151.367" y2="192.809" gradientUnits="userSpaceOnUse">
<stop stop-color="#FF0099"/>
<stop offset="1" stop-color="#AD00FF"/>
</linearGradient>
</defs>
</svg>
