<svg width="250" height="250" viewBox="0 0 250 250" fill="none" xmlns="http://www.w3.org/2000/svg">
<path d="M126.225 146.493C122.468 148.22 118.35 150.47 110.108 154.993C106.983 156.751 103.718 158.509 100.678 160.165C100.468 159.954 100.249 159.688 100.038 159.47C83.7332 142.048 53.5769 129.743 54.8582 106.345C55.3347 97.8211 58.2644 75.4461 112.772 48.2742C157.632 26.1648 193.327 32.2898 199.491 45.8758C208.35 65.243 180.358 101.282 134.03 106.509C128.903 107.549 123.607 107.423 118.535 106.141C113.462 104.859 108.743 102.454 104.725 99.1023C102.272 96.4383 101.905 96.282 100.999 96.8133C99.5066 97.5945 100.468 100.009 100.999 101.391C102.766 104.591 105.157 107.404 108.03 109.663C110.903 111.923 114.2 113.584 117.725 114.548C135.957 118.488 154.965 116.605 172.069 109.165C200.147 98.2977 222.069 68.0867 215.647 42.7586C209.202 17.0789 166.577 8.61015 126.249 22.9383C100.993 31.4492 77.6592 44.8469 57.5769 62.368C35.3582 83.1492 31.8426 101.212 33.2801 108.774C38.4519 135.626 75.4676 153.102 90.3113 166.048C89.5301 166.477 88.8738 166.829 88.2879 167.165C80.8816 170.845 52.6472 185.602 45.6082 201.212C37.616 218.899 46.8894 231.579 53.0144 233.282C62.2448 235.493 71.9352 234.766 80.7325 231.203C89.5298 227.64 96.9947 221.418 102.085 213.407C106.407 206.764 109.061 199.175 109.822 191.286C110.582 183.397 109.426 175.441 106.452 168.095C108.207 166.695 110.078 165.448 112.046 164.368C115.827 162.134 119.428 159.93 122.624 158.227C133.564 153.103 145.504 150.464 157.585 150.501C182.944 153.485 187.952 169.305 186.991 175.97C186.541 178.334 185.591 180.575 184.203 182.541C182.815 184.507 181.022 186.153 178.944 187.368C177.186 188.485 176.6 188.86 176.757 189.657C176.968 190.829 177.819 190.774 179.311 190.563C183.121 189.359 186.478 187.031 188.941 183.884C191.403 180.737 192.856 176.918 193.108 172.93C193.889 157.305 178.991 140.165 152.616 140.321C144.719 140.335 136.9 141.893 129.6 144.907C128.429 145.391 127.29 145.912 126.186 146.47L126.225 146.493ZM88.5301 207.735C80.1082 216.899 68.3894 220.36 63.3269 217.43C57.8582 214.305 60.0222 200.751 70.3582 191.055C76.4798 185.54 83.0962 180.6 90.1238 176.298C91.3504 175.516 93.1629 174.485 95.3426 173.173C95.7176 172.962 95.9285 172.852 95.9285 172.852L97.2097 172.071C99.0532 178.252 99.2209 184.811 97.6958 191.078C96.1706 197.344 93.0074 203.093 88.5301 207.735Z" fill="url(#paint0_linear_4327_47)"/>
<defs>
<linearGradient id="paint0_linear_4327_47" x1="124.887" y1="16" x2="124.887" y2="234.535" gradientUnits="userSpaceOnUse">
<stop stop-color="#FF0099"/>
<stop offset="1" stop-color="#AD00FF"/>
</linearGradient>
</defs>
</svg>
