<svg width="250" height="250" viewBox="0 0 250 250" fill="none" xmlns="http://www.w3.org/2000/svg">
<path d="M70.3125 107.031C77.6042 77.8646 95.8333 63.2812 125 63.2812C168.75 63.2812 174.219 96.0937 196.094 101.562C210.677 105.208 223.438 99.7396 234.375 85.1562C227.083 114.323 208.854 128.906 179.688 128.906C135.938 128.906 130.469 96.0937 108.594 90.625C94.0104 86.9792 81.25 92.4479 70.3125 107.031ZM15.625 172.656C22.9167 143.49 41.1458 128.906 70.3125 128.906C114.062 128.906 119.531 161.719 141.406 167.187C155.99 170.833 168.75 165.365 179.688 150.781C172.396 179.948 154.167 194.531 125 194.531C81.25 194.531 75.7813 161.719 53.9063 156.25C39.3229 152.604 26.5625 158.073 15.625 172.656Z" fill="url(#paint0_linear_4327_40)"/>
<defs>
<linearGradient id="paint0_linear_4327_40" x1="125" y1="63.2812" x2="125" y2="194.531" gradientUnits="userSpaceOnUse">
<stop stop-color="#FF0099"/>
<stop offset="1" stop-color="#AD00FF"/>
</linearGradient>
</defs>
</svg>
