<svg width="250" height="250" viewBox="0 0 250 250" fill="none" xmlns="http://www.w3.org/2000/svg">
<g clip-path="url(#clip0_4327_42)">
<path d="M0 125V250H125H250V125V0H125H0V125Z" fill="url(#paint0_linear_4327_42)"/>
<path d="M55.2844 125.829L55.2051 136.067H71.4749H87.7447L87.7447 182.297V228.528H99.2527H110.761V182.297L110.761 136.067H127.03H143.3V126.028C143.3 120.472 143.181 115.829 143.023 115.71C142.903 115.551 123.102 115.472 99.0939 115.512L55.4035 115.631L55.2844 125.829Z" fill="white"/>
<path d="M201.725 115.34C208.074 116.928 212.916 119.745 217.36 124.348C219.662 126.808 223.074 131.293 223.352 132.364C223.432 132.681 212.559 139.983 205.971 144.07C205.733 144.229 204.781 143.197 203.709 141.61C200.495 136.928 197.122 134.904 191.963 134.547C184.384 134.031 179.503 137.999 179.543 144.626C179.543 146.57 179.82 147.721 180.614 149.308C182.281 152.761 185.376 154.824 195.098 159.031C212.995 166.729 220.654 171.808 225.416 179.031C230.733 187.086 231.924 199.943 228.313 209.507C224.344 219.904 214.503 226.967 200.654 229.308C196.368 230.062 186.209 229.943 181.606 229.11C171.567 227.324 162.043 222.364 156.17 215.856C153.868 213.316 149.384 206.689 149.662 206.213C149.781 206.054 150.813 205.42 151.963 204.745C153.074 204.11 157.281 201.689 161.249 199.388L168.432 195.221L169.94 197.443C172.043 200.658 176.646 205.062 179.424 206.531C187.4 210.737 198.352 210.142 203.749 205.301C206.051 203.197 207.003 201.015 207.003 197.801C207.003 194.904 206.646 193.634 205.138 191.451C203.193 188.674 199.225 186.332 187.955 181.451C175.059 175.896 169.503 172.443 164.424 166.967C161.487 163.793 158.709 158.713 157.559 154.467C156.606 150.935 156.368 142.086 157.122 138.515C159.781 126.054 169.186 117.364 182.757 114.785C187.162 113.951 197.4 114.269 201.725 115.34Z" fill="white"/>
</g>
<defs>
<linearGradient id="paint0_linear_4327_42" x1="125" y1="250" x2="125" y2="0" gradientUnits="userSpaceOnUse">
<stop stop-color="#FF0099"/>
<stop offset="1" stop-color="#AD00FF"/>
</linearGradient>
<clipPath id="clip0_4327_42">
<rect width="250" height="250" fill="white"/>
</clipPath>
</defs>
</svg>
