<svg width="100" height="100" viewBox="0 0 100 100" fill="none" xmlns="http://www.w3.org/2000/svg">
<path d="M97.4734 15.25L52.5968 95.4984C51.6695 97.1554 49.289 97.1648 48.3492 95.5172L2.58196 15.2593C1.55618 13.4609 3.09134 11.2851 5.12962 11.6484L50.0546 19.6773C50.3413 19.7296 50.6351 19.7296 50.9218 19.6773L94.9062 11.6609C96.9359 11.2914 98.4804 13.4492 97.4734 15.25Z" fill="url(#paint0_linear_4614_423)"/>
<path d="M71.453 1.11713L38.2452 7.62338C37.9802 7.67517 37.7398 7.81353 37.5619 8.01674C37.384 8.21994 37.2787 8.47647 37.2624 8.74604L35.2179 43.2523C35.2069 43.4415 35.2401 43.6307 35.3149 43.8049C35.3897 43.979 35.504 44.1334 35.6488 44.2558C35.7936 44.3781 35.9648 44.4651 36.149 44.5097C36.3332 44.5544 36.5253 44.5556 36.7101 44.5132L45.9569 42.3765C46.1561 42.3307 46.3635 42.3357 46.5602 42.391C46.757 42.4462 46.9367 42.55 47.0828 42.6928C47.229 42.8355 47.337 43.0127 47.3969 43.2081C47.4568 43.4034 47.4667 43.6107 47.4257 43.8109L44.678 57.2632C44.636 57.4703 44.6485 57.6847 44.7142 57.8855C44.78 58.0862 44.8967 58.2665 45.053 58.4086C45.2093 58.5508 45.3998 58.6499 45.6059 58.6963C45.8121 58.7427 46.0267 58.7348 46.2288 58.6734L51.9382 56.9367C52.8233 56.6679 53.6749 57.446 53.489 58.3523L49.1218 79.4828C48.8499 80.8046 50.6077 81.5249 51.3405 80.3921L51.8288 79.6359L78.8913 25.6281C79.346 24.7218 78.5624 23.6906 77.571 23.8828L68.0515 25.7203C67.8466 25.7601 67.635 25.7465 67.4369 25.681C67.2388 25.6154 67.0609 25.5 66.9202 25.3458C66.7795 25.1917 66.6809 25.004 66.6337 24.8007C66.5865 24.5974 66.5923 24.3855 66.6507 24.1851L72.8616 2.65229C72.92 2.45123 72.9256 2.23852 72.8779 2.03466C72.8302 1.8308 72.7308 1.64267 72.5892 1.4884C72.4477 1.33414 72.2688 1.21894 72.0698 1.15391C71.8708 1.08888 71.6584 1.07621 71.453 1.11713Z" fill="url(#paint1_linear_4614_423)"/>
<defs>
<linearGradient id="paint0_linear_4614_423" x1="49.9999" y1="98.4" x2="49.9999" y2="34.6" gradientUnits="userSpaceOnUse">
<stop stop-color="#BC0071"/>
<stop offset="1" stop-color="#8A00CC"/>
</linearGradient>
<linearGradient id="paint1_linear_4614_423" x1="31.4282" y1="15.7143" x2="66.9813" y2="82.6994" gradientUnits="userSpaceOnUse">
<stop stop-color="#FF0099"/>
<stop offset="1" stop-color="#AD00FF"/>
</linearGradient>
</defs>
</svg>
