<svg width="250" height="250" viewBox="0 0 250 250" fill="none" xmlns="http://www.w3.org/2000/svg">
<g clip-path="url(#clip0_4327_13)">
<path fill-rule="evenodd" clip-rule="evenodd" d="M0 124.996C0 174.474 28.7508 217.233 70.4474 237.492L10.8207 74.1272C3.8908 89.6667 0 106.871 0 124.996ZM209.383 118.691C209.383 103.238 203.828 92.5421 199.078 84.2215C192.742 73.9165 186.797 65.1974 186.797 54.9002C186.797 43.4076 195.508 32.712 207.789 32.712C208.344 32.712 208.867 32.7821 209.407 32.8134C187.171 12.4378 157.538 0 124.998 0C81.3244 0 42.9092 22.4069 20.5569 56.3377C23.4945 56.4314 26.2602 56.4861 28.604 56.4861C41.6748 56.4861 61.9176 54.9002 61.9176 54.9002C68.6522 54.5017 69.449 64.4082 62.7144 65.1973C62.7144 65.1973 55.9408 65.9941 48.4093 66.3926L93.9264 201.788L121.287 119.746L101.817 66.3926C95.0827 65.9941 88.6997 65.1973 88.6997 65.1973C81.9651 64.7989 82.7542 54.5017 89.4966 54.9002C89.4966 54.9002 110.138 56.4861 122.42 56.4861C135.49 56.4861 155.733 54.9002 155.733 54.9002C162.475 54.5017 163.264 64.4082 156.53 65.1973C156.53 65.1973 149.748 65.9941 142.225 66.3926L187.398 200.756L199.875 159.099C205.266 141.801 209.383 129.387 209.383 118.691ZM234.687 65.0279C235.226 69.0124 235.531 73.2782 235.531 77.8799C235.531 90.56 233.156 104.818 226.023 122.655L187.842 233.041C225.007 211.376 250 171.109 250 124.998C250 103.263 244.445 82.8331 234.687 65.0279ZM127.193 135.931L89.684 244.911C100.887 248.208 112.732 250.005 124.998 250.005C139.553 250.005 153.514 247.489 166.507 242.919C166.179 242.38 165.866 241.817 165.616 241.2L127.193 135.931Z" fill="url(#paint0_linear_4327_13)"/>
</g>
<defs>
<linearGradient id="paint0_linear_4327_13" x1="125" y1="0" x2="125" y2="250.005" gradientUnits="userSpaceOnUse">
<stop stop-color="#FF0099"/>
<stop offset="1" stop-color="#AD00FF"/>
</linearGradient>
<clipPath id="clip0_4327_13">
<rect width="250" height="250" fill="white"/>
</clipPath>
</defs>
</svg>
