<svg width="250" height="250" viewBox="0 0 250 250" fill="none" xmlns="http://www.w3.org/2000/svg">
<g clip-path="url(#clip0_4428_65)">
<path d="M125.002 0C56.0547 0.00390625 0.012207 56.0552 0 124.998C0.012207 193.937 56.0547 249.988 125.002 250C193.941 249.988 249.992 193.937 250 124.998C249.992 56.0552 193.941 0.00390625 125.002 0ZM205.437 205.43C184.804 226.055 156.386 238.806 125.002 238.81C93.6133 238.806 65.1919 226.055 44.5664 205.43C23.9414 184.804 11.1948 156.379 11.1904 124.998C11.1943 93.6133 23.9414 65.1958 44.5664 44.563C65.1919 23.9453 93.6133 11.1948 125.002 11.1904C156.387 11.1943 184.804 23.9453 205.437 44.5625C226.054 65.1953 238.805 93.6089 238.809 124.998C238.805 156.379 226.055 184.804 205.437 205.43Z" fill="url(#paint0_linear_4428_65)"/>
<path d="M35.1709 84.8921H34.4653C29.0254 97.1567 25.9839 110.715 25.9839 124.998C25.9839 163.971 48.498 197.665 81.2271 213.825L35.1753 84.8921H35.1709Z" fill="url(#paint1_linear_4428_65)"/>
<path d="M181.233 89.0586C172.696 77.1191 173.962 52.7119 189.661 50.0381C172.309 35.0615 149.72 25.9795 125.002 25.9795C89.8979 25.9795 59.0815 44.2568 41.498 71.8081H77.7432V84.8916H63.1343L96.957 179.563L120.683 116.143L109.512 84.8911H92.6138V71.8076H153.271V84.8911H137.471L171.58 180.386L188.865 134.208C191.93 121.761 190.139 101.546 181.233 89.0586Z" fill="url(#paint2_linear_4428_65)"/>
<path d="M217.047 88.5142C217.008 88.8901 216.969 89.2705 216.914 89.6392C214.519 105.713 199.632 140.971 199.632 140.971L178.078 198.586L173.269 211.45C203.544 194.514 224.02 162.16 224.02 124.998C224.021 112.106 221.531 99.8066 217.047 88.5142Z" fill="url(#paint3_linear_4428_65)"/>
<path d="M103.448 197.735L95.3105 219.482C104.687 222.429 114.654 224.017 125.002 224.017C136.311 224.017 147.164 222.1 157.288 218.604L127.173 134.3L103.448 197.735Z" fill="url(#paint4_linear_4428_65)"/>
</g>
<defs>
<linearGradient id="paint0_linear_4428_65" x1="125" y1="0" x2="125" y2="250" gradientUnits="userSpaceOnUse">
<stop stop-color="#FF0099"/>
<stop offset="1" stop-color="#AD00FF"/>
</linearGradient>
<linearGradient id="paint1_linear_4428_65" x1="53.6055" y1="84.8921" x2="53.6055" y2="213.825" gradientUnits="userSpaceOnUse">
<stop stop-color="#FF0099"/>
<stop offset="1" stop-color="#AD00FF"/>
</linearGradient>
<linearGradient id="paint2_linear_4428_65" x1="115.875" y1="25.9795" x2="115.875" y2="180.386" gradientUnits="userSpaceOnUse">
<stop stop-color="#FF0099"/>
<stop offset="1" stop-color="#AD00FF"/>
</linearGradient>
<linearGradient id="paint3_linear_4428_65" x1="198.644" y1="88.5142" x2="198.644" y2="211.45" gradientUnits="userSpaceOnUse">
<stop stop-color="#FF0099"/>
<stop offset="1" stop-color="#AD00FF"/>
</linearGradient>
<linearGradient id="paint4_linear_4428_65" x1="126.299" y1="134.3" x2="126.299" y2="224.017" gradientUnits="userSpaceOnUse">
<stop stop-color="#FF0099"/>
<stop offset="1" stop-color="#AD00FF"/>
</linearGradient>
<clipPath id="clip0_4428_65">
<rect width="250" height="250" fill="white"/>
</clipPath>
</defs>
</svg>
