<svg width="100" height="100" viewBox="0 0 100 100" fill="none" xmlns="http://www.w3.org/2000/svg">
<g clip-path="url(#clip0_4614_216)">
<path fill-rule="evenodd" clip-rule="evenodd" d="M56.2905 31.3407H23.3343C20.7562 31.3407 18.664 33.4329 18.664 36.011V76.5797C18.664 79.1579 20.7562 81.25 23.3343 81.25H63.9968C66.5749 81.25 68.6671 79.1579 68.6671 76.5797V43.8407H74.9155V78.1344C74.9155 83.3032 70.7187 87.5 65.5483 87.5016H21.7827C16.6124 87.5016 12.4155 83.3032 12.4155 78.1344V34.4563C12.4155 29.286 16.6124 25.0891 21.7827 25.0891H56.2905V31.3407Z" fill="url(#paint0_linear_4614_216)"/>
<path fill-rule="evenodd" clip-rule="evenodd" d="M87.3829 39.5625H81.1251V23.1859L37.5407 66.7687L33.1157 62.3438L76.7017 18.7578H60.3204V12.5H87.3798L87.3829 12.5016V39.5625Z" fill="url(#paint1_linear_4614_216)"/>
</g>
<defs>
<linearGradient id="paint0_linear_4614_216" x1="43.6655" y1="25.0891" x2="43.6655" y2="87.5016" gradientUnits="userSpaceOnUse">
<stop stop-color="#FF0099"/>
<stop offset="1" stop-color="#AD00FF"/>
</linearGradient>
<linearGradient id="paint1_linear_4614_216" x1="60.2493" y1="12.5" x2="60.2493" y2="66.7687" gradientUnits="userSpaceOnUse">
<stop stop-color="#FF0099"/>
<stop offset="1" stop-color="#AD00FF"/>
</linearGradient>
<clipPath id="clip0_4614_216">
<rect width="100" height="100" fill="white"/>
</clipPath>
</defs>
</svg>
