<svg width="100" height="100" viewBox="0 0 100 100" fill="none" xmlns="http://www.w3.org/2000/svg">
<path d="M50.0002 8.33337C27.0418 8.33337 8.3335 27.0417 8.3335 50C8.3335 72.9584 27.0418 91.6667 50.0002 91.6667C72.9585 91.6667 91.6668 72.9584 91.6668 50C91.6668 27.0417 72.9585 8.33337 50.0002 8.33337ZM64.0002 59.5834C65.2085 60.7917 65.2085 62.7917 64.0002 64C63.3752 64.625 62.5835 64.9167 61.7918 64.9167C61.0002 64.9167 60.2085 64.625 59.5835 64L50.0002 54.4167L40.4168 64C39.7918 64.625 39.0002 64.9167 38.2085 64.9167C37.4168 64.9167 36.6252 64.625 36.0002 64C34.7918 62.7917 34.7918 60.7917 36.0002 59.5834L45.5835 50L36.0002 40.4167C34.7918 39.2084 34.7918 37.2084 36.0002 36C37.2085 34.7917 39.2085 34.7917 40.4168 36L50.0002 45.5834L59.5835 36C60.7918 34.7917 62.7918 34.7917 64.0002 36C65.2085 37.2084 65.2085 39.2084 64.0002 40.4167L54.4168 50L64.0002 59.5834Z" fill="#FAEFFF"/>
</svg>
