<svg width="100" height="100" viewBox="0 0 100 100" fill="none" xmlns="http://www.w3.org/2000/svg">
<g clip-path="url(#clip0_4992_235)">
<path d="M37.4218 33.8688L37.3562 11.3094C37.328 10.0469 36.2812 9.2969 35.0187 9.26565L33.4155 9.26252C32.1499 9.2344 31.1499 10.3344 31.178 11.5969L31.2655 26.7563L5.2624 1.00002C4.04053 -0.221851 2.0624 -0.221851 0.843652 1.00002C-0.375098 2.2219 -0.378223 4.20002 0.843652 5.41877L26.7343 31.0657L11.9812 31.1032C10.7187 31.075 9.54678 31.9469 9.35615 33.4344L9.35928 35.0375C9.39053 36.3032 10.4343 37.3469 11.6968 37.375L34.1093 37.2781C34.1343 37.2813 34.1499 37.2875 34.1718 37.2875L35.3155 37.3125C35.9436 37.3281 36.5124 37.0813 36.9155 36.6719C37.328 36.2656 37.4718 35.7 37.4624 35.0657L37.3374 33.9219C37.3405 33.9 37.4218 33.8844 37.4218 33.8625V33.8688ZM63.0843 36.675C63.4874 37.0813 64.0562 37.3313 64.6843 37.3157L65.828 37.2906C65.8499 37.2906 65.8655 37.2844 65.8905 37.2781L88.303 37.375C89.5655 37.3469 90.6093 36.3 90.6374 35.0375L90.6405 33.4344C90.4499 31.9469 89.278 31.075 88.0155 31.1032L73.2624 31.0657L99.153 5.41877C100.375 4.1969 100.375 2.21877 99.153 1.00002C97.9312 -0.218726 95.9562 -0.221851 94.7343 1.00002L68.7343 26.7532L68.8186 11.5938C68.8468 10.3313 67.8468 9.23127 66.5843 9.2594L64.9812 9.26252C63.7155 9.29377 62.6718 10.0438 62.6437 11.3063L62.578 33.8657C62.578 33.8875 62.6624 33.9032 62.6624 33.9282L62.5374 35.0719C62.5218 35.7063 62.6718 36.2719 63.0812 36.6782L63.0843 36.675ZM36.9155 63.225C36.5093 62.8156 35.9436 62.5688 35.3155 62.5844L34.1718 62.6125C34.1499 62.6125 34.1343 62.6219 34.1093 62.6219L11.6937 62.5219C10.4312 62.55 9.3874 63.5938 9.35615 64.8563L9.35303 66.4625C9.54678 67.95 10.7155 68.8219 11.978 68.7906L26.7499 68.8281L0.843652 94.5719C-0.378223 95.7906 -0.378223 97.7688 0.843652 98.9906C2.06553 100.213 4.04365 100.209 5.2624 98.9906L31.2655 73.1532L31.178 88.3969C31.1499 89.6594 32.153 90.7594 33.4155 90.7313L35.0187 90.7281C36.2843 90.6969 37.328 89.9469 37.3562 88.6844L37.4218 66.125C37.4218 66.1031 37.3374 66.0907 37.3374 66.0657L37.4624 64.825C37.478 64.1906 37.328 63.625 36.9187 63.2188L36.9155 63.225ZM73.2468 68.8375L88.0187 68.8C89.2812 68.8281 90.453 67.9563 90.6437 66.4719L90.6405 64.8656C90.6093 63.6031 89.5655 62.5563 88.303 62.5281H65.8905C65.8655 62.5281 65.8499 62.5188 65.828 62.5188L64.4905 62.4906C63.8624 62.4719 63.2905 62.9156 62.8905 63.325C62.4812 63.7313 62.3343 64.2969 62.3468 64.9313L62.4718 66.075C62.4718 66.1 62.3874 66.1125 62.3874 66.1344L62.453 88.6938C62.4812 89.9563 63.5249 90.7063 64.7905 90.7375L66.4905 90.7406C67.753 90.7688 68.7562 89.6688 68.7249 88.4063L68.6405 73.3157L94.7405 99.0031C95.9593 100.225 97.9374 100.225 99.1593 99.0031C100.381 97.7813 100.381 95.8063 99.1593 94.5844L73.2468 68.8375Z" fill="#FAEFFF"/>
</g>
<defs>
<clipPath id="clip0_4992_235">
<rect width="100" height="100" fill="white"/>
</clipPath>
</defs>
</svg>
